PathFileType	4	(X/Y/Z)	C:\Users\Basilio\Documents\Thesis Gigler\squatting_fais\c3dfiles\039\SLS_pre_front2\markers_experimental.trc
DataRate	CameraRate	NumFrames	NumMarkers	Units	OrigDataRate	OrigDataStartFrame	OrigNumFrames
200.000000	200.000000	4	62	mm	200.000000	525	2102
Frame#	Time	FHD			LBHD			RBHD			C7			T10			CLAV			LSHO			LUUPA			LMUPA			LDUPA			LLEP			LMEP			LRAD			LUL			LRFIN			RSHO			RUPA1			RMUPA			RDUPA			RLEP			RMEP			RRAD			RUL			RUFIN			LASI			RASI			USACR			LSACR			RSACR			LTHI1			LTHI2			LTHI3			LTHI4			LLFC			LMFC			LTIB1			LTIB2			LTIB3			LTIB4			LLMAL			LMMAL			LHEE			LMT1			LMT2			LMT5			RTHI			RTHI2			RTHI3			RTHI4			RLFC			RMFC			RTIB1			RTIB2			RTIB3			RTIB4			RLMAL			RMMAL			RHEE			RMT1			RMT2			RMT5			*61			
		X1	Y1	Z1	X2	Y2	Z2	X3	Y3	Z3	X4	Y4	Z4	X5	Y5	Z5	X6	Y6	Z6	X7	Y7	Z7	X8	Y8	Z8	X9	Y9	Z9	X10	Y10	Z10	X11	Y11	Z11	X12	Y12	Z12	X13	Y13	Z13	X14	Y14	Z14	X15	Y15	Z15	X16	Y16	Z16	X17	Y17	Z17	X18	Y18	Z18	X19	Y19	Z19	X20	Y20	Z20	X21	Y21	Z21	X22	Y22	Z22	X23	Y23	Z23	X24	Y24	Z24	X25	Y25	Z25	X26	Y26	Z26	X27	Y27	Z27	X28	Y28	Z28	X29	Y29	Z29	X30	Y30	Z30	X31	Y31	Z31	X32	Y32	Z32	X33	Y33	Z33	X34	Y34	Z34	X35	Y35	Z35	X36	Y36	Z36	X37	Y37	Z37	X38	Y38	Z38	X39	Y39	Z39	X40	Y40	Z40	X41	Y41	Z41	X42	Y42	Z42	X43	Y43	Z43	X44	Y44	Z44	X45	Y45	Z45	X46	Y46	Z46	X47	Y47	Z47	X48	Y48	Z48	X49	Y49	Z49	X50	Y50	Z50	X51	Y51	Z51	X52	Y52	Z52	X53	Y53	Z53	X54	Y54	Z54	X55	Y55	Z55	X56	Y56	Z56	X57	Y57	Z57	X58	Y58	Z58	X59	Y59	Z59	X60	Y60	Z60	X61	Y61	Z61	X62	Y62	Z62	

526	2.625	-335.2571716308594	1777.68310546875	-678.0989379882814	-490.5808715820314	1743.300659179688	-798.8854980468752	-465.6227111816407	1751.537841796875	-659.5963745117189	-529.6088256835939	1573.648803710938	-738.2695922851564	-520.9653320312501	1262.9384765625	-746.8638305664064	nan	nan	nan	-452.872039794922	1581.565185546875	-893.405212402344	-279.3332824707032	1554.52783203125	-991.3018188476565	-261.0483703613282	1590.052978515625	-960.8635864257815	-211.3646697998047	1571.090087890625	-989.1269531250002	-146.1345825195313	1586.63525390625	-981.789733886719	-136.2423553466797	1516.701538085938	-947.486022949219	123.2349014282227	1644.459228515625	-879.3265380859377	126.3648757934571	1651.18310546875	-955.1724853515627	200.7036743164063	1686.232543945313	-869.2247314453127	-421.5888977050782	1582.8740234375	-568.3082885742189	-258.8093872070313	1529.175415039063	-466.7182922363282	-233.4373016357422	1562.645751953125	-494.072479248047	-189.5794067382813	1531.14306640625	-467.2812500000001	-127.0737457275391	1548.22607421875	-478.8509521484376	-118.2900619506836	1480.007568359375	-515.7454223632814	155.5759735107422	1608.342529296875	-570.1867675781251	157.9874725341797	1602.339233398438	-494.0542602539064	239.9109039306641	1648.473876953125	-565.8926391601564	-328.0534362792969	1116.704956054688	-871.2815551757815	-330.4368286132813	1078.6201171875	-647.9017944335939	-517.0913696289064	1130.144165039063	-755.7989501953126	-517.5171508789064	1102.502685546875	-789.108825683594	-518.9711914062501	1094.2548828125	-731.0197143554689	-232.3643951416016	884.536071777344	-947.0853271484377	-159.440185546875	844.3645019531252	-930.9665527343752	-128.4793090820313	872.4667968750002	-908.3115234375002	-150.528076171875	783.358337402344	-926.7593994140627	-74.56360626220705	687.6594848632814	-917.8975830078127	-66.30149078369142	663.3515014648439	-800.8054199218752	47.29014968872071	589.7767944335939	-878.9132080078127	24.45839881896973	527.8335571289064	-935.5454711914065	58.48128128051759	541.4154052734376	-910.0884399414065	93.86190032958986	470.316619873047	-872.891784667969	145.7170562744141	303.9514465332032	-920.0555419921877	139.8170013427735	298.8135681152344	-833.7043457031252	104.5355987548828	220.9363403320313	-900.7839355468752	300.0068054199219	316.2432250976563	-813.5744628906252	307.3075256347657	319.4505615234376	-854.4995117187502	293.5465087890626	286.2468872070313	-916.7427368164065	-329.7412109375001	798.1879882812502	-609.8698730468751	-279.6239318847657	753.7147827148439	-609.1047363281251	-249.1267242431641	763.6333618164064	-613.9409179687501	-289.2712402343751	670.4165039062501	-628.1638183593751	-297.2377929687501	534.4859008789064	-661.3800048828126	-261.4987182617188	538.5782470703126	-774.781677246094	-271.8533325195313	326.0931091308594	-699.3719482421876	-362.9494018554688	269.0379943847657	-694.7861328125001	-319.2252502441407	255.6941375732422	-696.3607177734376	-307.2282714843751	210.0048065185547	-735.2338256835939	-383.6097412109376	124.2071914672852	-717.4501953125001	-354.6522216796876	141.1063232421875	-802.3613281250002	-453.7816772460939	106.1189346313477	-771.613464355469	-231.5123443603516	53.30728912353517	-777.9250488281252	-234.8652954101563	58.28039932250978	-731.6628417968751	-291.6903076171876	42.58725738525391	-680.8469238281251	nan	nan	nan	
527	2.63	-335.3577575683594	1777.687622070313	-677.7120361328126	-490.6040344238282	1743.509399414063	-798.5571899414065	-465.6977844238282	1751.51953125	-659.2565917968751	-529.6734008789064	1573.695190429688	-738.1907958984376	-521.0737304687501	1262.953125	-746.9010009765626	nan	nan	nan	-452.7893066406251	1581.734741210938	-893.335388183594	-279.3091735839844	1554.875732421875	-991.116394042969	-260.9486389160157	1590.319458007813	-960.586120605469	-211.2485656738282	1571.420288085938	-988.9485473632815	-146.0908203125	1586.981689453125	-981.5683593750002	-136.1097564697266	1517.012573242188	-947.2575683593752	123.3103713989258	1644.622802734375	-878.9630126953127	126.4193496704102	1651.435913085938	-954.9085693359377	200.7942657470704	1686.37451171875	-868.9646606445315	-421.8392028808595	1582.7041015625	-568.1491699218751	-259.0267944335938	1529.034057617188	-466.7024230957032	-233.5141143798829	1562.745849609375	-493.7433166503907	-189.7884216308594	1530.989624023438	-467.150848388672	-127.3232421875	1548.059814453125	-478.6006164550782	-118.4632110595703	1479.919677734375	-515.5635986328126	155.3458251953125	1608.332275390625	-569.8626708984376	157.8025970458985	1602.26025390625	-493.6813964843751	239.5925598144532	1648.581665039063	-565.4984130859376	-328.0507202148438	1116.657104492188	-871.2557373046877	-330.6001892089844	1078.680908203125	-647.8797607421876	-517.2599487304689	1130.204956054688	-755.7695922851564	-517.7958374023439	1102.53662109375	-789.053161621094	-518.9531860351564	1094.249267578125	-730.9388427734376	-232.5623779296876	884.4815673828127	-947.1048583984377	-159.6422271728516	844.412780761719	-931.0512695312502	-128.5857696533203	872.558044433594	-908.5283813476565	-150.7455596923828	783.4328613281252	-926.7520141601565	-74.58326721191408	687.8274536132814	-917.9743652343752	-66.11040496826173	663.7580566406251	-800.9029541015627	47.43952941894532	590.0904541015626	-879.047546386719	24.70330810546876	528.2056884765626	-935.5850830078127	58.52564620971681	541.9038696289064	-910.241638183594	94.34786987304689	470.769744873047	-873.0169677734377	146.1823272705078	304.4901123046876	-920.0916748046877	140.179443359375	299.2129821777344	-833.6900634765627	104.5572128295899	221.3532104492188	-900.8182373046877	300.7611999511719	316.8435058593751	-813.9089965820315	307.7218933105469	320.0846862792969	-854.823181152344	294.0223083496094	287.0933227539063	-917.0855712890627	-329.8677673339844	798.205749511719	-610.0395507812501	-279.7226562500001	753.7318115234376	-609.2987670898439	-249.2000122070313	763.6070556640626	-614.2326660156251	-289.4044494628907	670.4460449218751	-628.4375610351564	-297.1033935546876	534.7221069335939	-661.4301757812501	-261.7648620605469	538.6253051757814	-775.0672607421877	-271.7934265136719	326.1337280273438	-699.6818847656251	-362.9259033203126	269.1232299804688	-695.0737915039064	-319.2040100097657	255.8487548828126	-696.4342041015626	-307.2257690429688	210.0221557617188	-735.4424438476564	-383.4985351562501	124.1878433227539	-717.5000000000001	-354.6419372558594	141.0709228515625	-802.4834594726565	-453.9805908203126	106.4692306518555	-771.5296020507815	-231.473373413086	53.23850631713869	-778.0169677734377	-234.8452911376954	58.23815155029298	-731.7109375000001	-291.6380004882813	42.61324310302735	-680.9196777343751	nan	nan	nan	
528	2.635	-335.4358825683594	1777.677124023438	-677.2288818359376	-490.9282531738282	1743.670166015625	-798.0571899414065	-465.7470703125001	1751.43359375	-658.9458007812501	-529.7406005859376	1573.736206054688	-738.1917114257814	-521.2014160156251	1262.998779296875	-746.8967285156251	nan	nan	nan	-452.7332763671876	1581.912109375	-893.2571411132815	-279.1628112792969	1555.163330078125	-991.0056762695315	-261.1299438476563	1590.3427734375	-960.4252929687502	-211.2434387207032	1571.731079101563	-988.754821777344	-146.1229705810547	1587.258422851563	-981.2705078125002	-136.0815734863282	1517.198120117188	-947.0962524414065	123.3623580932617	1644.841918945313	-878.665710449219	126.4385986328125	1651.666381835938	-954.6169433593752	200.8671264648438	1686.44677734375	-868.669128417969	-422.0988159179689	1582.632202148438	-568.0031738281251	-259.2318725585938	1528.863647460938	-466.6631469726564	-233.9414825439454	1562.247924804688	-493.7520751953126	-189.9875030517578	1530.767944335938	-466.9932250976564	-127.5843353271485	1547.907592773438	-478.4258728027345	-118.6639938354492	1479.753295898438	-515.3622436523439	155.1633453369141	1608.35205078125	-569.5014648437501	157.5826416015625	1602.215454101563	-493.1600952148439	239.4146575927735	1648.54150390625	-565.1262207031251	-328.3099975585938	1116.6728515625	-871.2423095703127	-330.7233276367188	1078.699096679688	-647.8331909179689	-517.3931884765626	1130.207275390625	-755.6675415039064	-517.9436035156251	1102.547485351563	-788.939880371094	-518.8837280273439	1094.24658203125	-730.7231445312501	-232.8034667968751	884.5000000000002	-947.0835571289065	-159.7544250488282	844.4815673828127	-931.1521606445315	-128.6039123535157	872.627624511719	-908.7575683593752	-150.8747863769532	783.4774169921877	-926.7388916015627	-74.56824493408205	688.0560302734376	-918.0452270507815	-65.82479095458986	663.9571533203126	-800.9570922851565	47.56795120239259	590.5213012695314	-879.059509277344	24.94795417785645	528.6416625976564	-935.699401855469	58.60140609741212	542.2516479492189	-910.244567871094	94.62088012695314	471.3051147460939	-873.0472412109377	146.6741027832032	305.0661010742188	-920.1380004882815	140.9841003417969	299.8320922851563	-833.6069946289065	105.3797760009766	221.6856689453126	-900.6407470703127	301.2696838378907	317.8349914550782	-814.204772949219	308.2901306152344	321.1611022949219	-855.2580566406252	294.3538513183594	287.6630249023438	-917.1279296875002	-329.8225097656251	798.2476806640627	-610.2285156250001	-279.5548706054688	753.6262207031251	-609.6164550781251	-249.1197509765626	763.6187133789064	-614.6409912109376	-289.3966369628907	670.5413208007814	-628.7221679687501	-297.2383422851563	534.8627319335939	-661.7130126953126	-262.0850219726563	538.7350463867189	-775.4196777343752	-271.7181701660157	326.1365966796876	-700.0895996093751	-362.8720703125001	269.1085510253907	-695.2872314453126	-319.1842956542969	255.8065490722657	-696.7047729492189	-307.1941223144532	209.9937744140626	-735.7135620117189	-383.5054931640626	124.2305297851563	-717.6187744140626	-354.7166137695313	141.0341796875	-802.578063964844	-453.9299316406251	106.378402709961	-771.5664062500002	-231.4870147705079	53.063045501709	-778.024353027344	-234.7989654541016	58.28866195678712	-731.7867431640626	-291.6028747558594	42.68589401245118	-680.9690551757814	nan	nan	nan	
529	2.64	-335.5366516113282	1777.496459960938	-676.8205566406251	-491.0677185058595	1743.727294921875	-797.6911621093752	-465.8426818847657	1751.367797851563	-658.6644897460939	-529.8687133789064	1573.762329101563	-738.0670776367189	-520.9785766601564	1263.186767578125	-746.8532714843751	nan	nan	nan	-452.7003784179689	1582.049194335938	-893.162292480469	-279.1129760742188	1555.528442382813	-990.8394775390627	-261.0043334960938	1590.609130859375	-960.234313964844	-211.2703247070313	1572.034545898438	-988.5500488281252	-146.0790252685547	1587.512573242188	-981.027038574219	-136.0987854003907	1517.420288085938	-946.8450317382815	123.412094116211	1645.01025390625	-878.3575439453127	126.4525680541992	1651.842163085938	-954.3480224609377	200.9483795166016	1686.616333007813	-868.258972167969	-422.2989501953126	1582.321411132813	-567.8302001953126	-259.3967590332032	1528.658935546875	-466.6466064453126	-234.1183776855469	1562.026977539063	-493.6047363281251	-190.2430877685547	1530.457641601563	-466.7604370117189	-127.831901550293	1547.734008789063	-478.2098388671876	-118.9149169921875	1479.610473632813	-515.2638549804689	154.8912963867188	1608.341918945313	-569.0683593750001	157.3291015625	1602.082397460938	-492.7736816406251	239.2263946533204	1648.5078125	-564.6994628906251	-328.5065307617188	1116.6279296875	-871.228942871094	-330.8432617187501	1078.807495117188	-647.7436523437501	-517.5742187500001	1130.241943359375	-755.5572509765626	-518.1411743164064	1102.569702148438	-788.8326416015627	-518.8488159179689	1094.195678710938	-730.6007690429689	-232.9798431396485	884.580993652344	-947.107360839844	-159.9279022216797	844.5889282226565	-931.204528808594	-129.1166076660157	873.0933837890627	-908.9322509765627	-150.9795532226563	783.6152954101565	-926.7586059570315	-74.53238677978517	688.2678833007814	-918.0728149414065	-65.51498413085939	664.2534790039064	-801.006042480469	47.78845596313477	590.9790039062501	-879.2055664062502	25.15738487243653	529.0319213867189	-935.6770629882815	59.04304885864259	542.7180786132814	-910.3448486328127	94.93002319335939	471.682586669922	-873.0557861328127	147.3699798583985	305.4186706542969	-919.803161621094	141.695785522461	300.3777770996094	-833.6152343750002	106.1417236328125	222.1732482910157	-900.1614379882815	302.0511169433594	318.7999877929688	-814.4056396484377	308.7177124023438	322.3155517578126	-855.974060058594	294.4529418945313	287.6583251953126	-917.5396118164065	-329.6619262695313	798.1939697265627	-610.6058349609376	-279.2770385742188	753.3052368164064	-609.9920043945314	-248.9781799316407	763.6830444335939	-615.1398925781251	-289.2456665039063	670.5292968750001	-629.0254516601564	-297.2411499023438	534.9030151367189	-662.0536499023439	-262.2602233886719	538.8082885742189	-775.868347167969	-271.6324768066407	326.2239685058594	-700.4952392578126	-362.7441101074219	269.1838378906251	-695.5056762695314	-319.0428771972657	255.8571166992188	-696.9854736328126	-307.1362304687501	210.0431365966797	-736.0906372070314	-383.4454956054688	124.2423400878907	-717.7972412109376	-354.7939147949219	140.95263671875	-802.7958984375002	-453.9548645019532	106.3768920898438	-771.6154785156252	-231.4656524658204	52.99320220947267	-778.1279907226565	-234.781967163086	58.28690338134767	-731.8278198242189	-291.5938415527344	42.77724075317384	-680.9891357421876	nan	nan	nan	
